<svg width="612" height="612" viewBox="0 0 612 612" fill="none" xmlns="http://www.w3.org/2000/svg">
<path d="M305.813 12.476C143.68 12.476 12.4761 143.68 12.4761 305.813C12.4761 467.927 143.68 599.15 305.813 599.15C467.927 599.15 599.15 467.927 599.15 305.813C599.15 143.68 467.927 12.476 305.813 12.476Z" fill="#0084FF"/>
<path d="M305.813 200.962C247.859 200.962 200.962 247.859 200.962 305.813C200.962 363.786 247.858 410.665 305.813 410.665C363.786 410.665 410.666 363.786 410.666 305.813C410.665 247.859 363.785 200.962 305.813 200.962Z" fill="white"/>
<path d="M522.089 89.518C464.378 31.788 387.542 0 305.813 0C224.065 0 147.249 31.788 89.518 89.518C31.789 147.248 0 224.065 0 305.813C0 387.542 31.788 464.377 89.518 522.09C147.248 579.838 224.065 611.625 305.813 611.625C387.542 611.625 464.378 579.838 522.089 522.09C579.839 464.377 611.627 387.541 611.627 305.813C611.627 224.065 579.839 147.248 522.089 89.518ZM305.813 586.636C150.945 586.636 24.971 460.68 24.971 305.813C24.971 150.945 150.946 24.971 305.813 24.971C460.68 24.971 586.636 150.946 586.636 305.813C586.636 460.68 460.68 586.636 305.813 586.636Z" fill="black"/>
<path d="M423.14 305.813C423.14 241.117 370.509 188.486 305.813 188.486C241.117 188.486 188.486 241.117 188.486 305.813C188.486 370.508 241.117 423.14 305.813 423.14C370.509 423.14 423.14 370.508 423.14 305.813ZM213.438 305.813C213.438 254.881 254.881 213.438 305.813 213.438C356.763 213.438 398.188 254.881 398.188 305.813C398.188 356.763 356.763 398.188 305.813 398.188C254.881 398.188 213.438 356.763 213.438 305.813Z" fill="black"/>
<path d="M340.776 305.813C340.776 286.539 325.088 270.869 305.813 270.869C286.539 270.869 270.869 286.539 270.869 305.813C270.869 325.086 286.54 340.776 305.813 340.776C325.087 340.776 340.776 325.086 340.776 305.813ZM295.821 305.813C295.821 300.303 300.303 295.821 305.813 295.821C311.323 295.821 315.805 300.303 315.805 305.813C315.805 311.323 311.323 315.805 305.813 315.805C300.303 315.805 295.821 311.323 295.821 305.813Z" fill="black"/>
<path d="M305.813 468.077C298.921 468.077 293.337 473.681 293.337 480.555C293.337 487.464 298.921 493.031 305.813 493.031C355.867 493.031 402.895 473.607 438.231 438.233C473.605 402.896 493.029 355.869 493.029 305.814C493.029 298.922 487.465 293.338 480.552 293.338C473.679 293.338 468.075 298.922 468.075 305.814C468.076 395.312 395.312 468.077 305.813 468.077Z" fill="black"/>
<path d="M536.732 293.337C529.859 293.337 524.256 298.921 524.256 305.813C524.256 307.586 524.256 309.342 524.181 311.098C524.032 317.991 529.486 323.724 536.359 323.873C536.471 323.873 536.584 323.873 536.658 323.873C543.457 323.873 548.984 318.476 549.135 311.694C549.21 309.733 549.21 307.772 549.21 305.811C549.209 298.921 543.605 293.337 536.732 293.337Z" fill="black"/>
<path d="M534.64 339.543C527.879 338.16 521.268 342.567 519.923 349.291C499.49 450.67 409.431 524.256 305.813 524.256C298.921 524.256 293.337 529.86 293.337 536.732C293.337 543.605 298.921 549.21 305.813 549.21C362.366 549.21 417.462 529.411 460.905 493.479C503.788 457.994 533.445 408.539 544.427 354.225C545.772 347.501 541.402 340.924 534.64 339.543Z" fill="black"/>
<path d="M305.813 143.549C312.706 143.549 318.291 137.946 318.291 131.054C318.291 124.162 312.706 118.578 305.813 118.578C255.759 118.578 208.731 138.039 173.395 173.394C138.041 208.731 118.58 255.759 118.58 305.813C118.58 312.706 124.164 318.29 131.056 318.29C137.966 318.29 143.551 312.706 143.551 305.813C143.549 216.333 216.333 143.549 305.813 143.549Z" fill="black"/>
<path d="M75.249 287.752C68.376 287.584 62.6419 293.038 62.4739 299.929C62.4359 301.891 62.418 303.852 62.418 305.813C62.418 312.706 68.002 318.29 74.894 318.29C81.787 318.29 87.371 312.706 87.371 305.813C87.371 304.039 87.3899 302.283 87.4449 300.527C87.5939 293.636 82.14 287.902 75.249 287.752Z" fill="black"/>
<path d="M305.813 87.37C312.706 87.37 318.291 81.786 318.291 74.894C318.291 68.002 312.706 62.418 305.813 62.418C249.241 62.418 194.165 82.215 150.704 118.168C107.821 153.635 78.1631 203.073 67.2191 257.385C65.8561 264.127 70.226 270.72 76.987 272.084C77.827 272.252 78.649 272.327 79.471 272.327C85.298 272.327 90.509 268.237 91.686 262.316C112.135 160.938 202.176 87.37 305.813 87.37Z" fill="black"/>
</svg>
